<svg width="19" height="20" viewBox="0 0 19 20" fill="none" xmlns="http://www.w3.org/2000/svg">
<path d="M9.50001 0C14.7469 0 19 4.477 19 9.99999C19 15.523 14.7469 20 9.50001 20C7.82112 20.003 6.17176 19.5353 4.72151 18.645L0.00381468 20L1.28821 15.032C0.441725 13.5049 -0.00292754 11.768 1.45052e-05 9.99999C1.45052e-05 4.477 4.25316 0 9.50001 0ZM6.26241 5.3L6.07241 5.308C5.94957 5.31691 5.82954 5.35087 5.71901 5.408C5.61601 5.46951 5.52194 5.54629 5.43971 5.636C5.32571 5.749 5.26111 5.847 5.19176 5.942C4.84038 6.4229 4.65119 7.01331 4.65406 7.61999C4.65596 8.10999 4.77756 8.58699 4.96756 9.03299C5.35611 9.93499 5.99546 10.89 6.83906 11.775C7.04236 11.988 7.24186 12.202 7.45656 12.401C8.50482 13.3724 9.75392 14.073 11.1046 14.447L11.6442 14.534C11.8199 14.544 11.9957 14.53 12.1724 14.521C12.449 14.5056 12.7191 14.4268 12.9637 14.29C13.088 14.2223 13.2094 14.1489 13.3276 14.07C13.3276 14.07 13.3678 14.0413 13.4463 13.98C13.5746 13.88 13.6534 13.809 13.7598 13.692C13.8396 13.6053 13.9061 13.5047 13.9593 13.39C14.0334 13.227 14.1075 12.916 14.1379 12.657C14.1607 12.459 14.1541 12.351 14.1512 12.284C14.1474 12.177 14.0629 12.066 13.9707 12.019L13.4178 11.758C13.4178 11.758 12.5913 11.379 12.0859 11.137C12.033 11.1127 11.9763 11.0989 11.9187 11.096C11.8537 11.0888 11.788 11.0965 11.726 11.1184C11.6641 11.1403 11.6073 11.176 11.5596 11.223C11.5549 11.221 11.4912 11.278 10.8044 12.154C10.7649 12.2098 10.7106 12.2519 10.6484 12.275C10.5861 12.2982 10.5187 12.3013 10.4548 12.284C10.3928 12.2666 10.3322 12.2446 10.2733 12.218C10.1555 12.166 10.1147 12.146 10.0339 12.11C9.48849 11.8599 8.98363 11.5215 8.53766 11.107C8.41796 10.997 8.30681 10.877 8.19281 10.761C7.81909 10.3842 7.49337 9.95798 7.22381 9.49299L7.16776 9.39799C7.12811 9.33379 7.0956 9.26501 7.07086 9.19299C7.03476 9.04599 7.12881 8.92799 7.12881 8.92799C7.12881 8.92799 7.35966 8.66199 7.46701 8.51799C7.57151 8.37799 7.65986 8.24199 7.71686 8.14499C7.82896 7.95499 7.86411 7.75999 7.80521 7.60899C7.53921 6.92499 7.26434 6.24466 6.98061 5.568C6.92456 5.434 6.75831 5.338 6.60726 5.319C6.55596 5.31233 6.50466 5.307 6.45336 5.303C6.3258 5.29529 6.1979 5.29663 6.07051 5.307L6.26241 5.3Z" fill="#19B6FD"/>
</svg>
